<svg width="44" height="44" viewBox="0 0 44 44" fill="none" xmlns="http://www.w3.org/2000/svg">
    <path
        d="M8.13999 8.13999C8.39507 7.88456 8.69799 7.68192 9.03145 7.54366C9.3649 7.40539 9.72235 7.33423 10.0833 7.33423C10.4443 7.33423 10.8018 7.40539 11.1352 7.54366C11.4687 7.68192 11.7716 7.88456 12.0267 8.13999L22 18.1097L31.9733 8.13999C32.2285 7.88479 32.5315 7.68235 32.8649 7.54424C33.1984 7.40613 33.5558 7.33504 33.9167 7.33504C34.2776 7.33504 34.6349 7.40613 34.9684 7.54424C35.3018 7.68235 35.6048 7.88479 35.86 8.13999C36.1152 8.3952 36.3176 8.69817 36.4557 9.0316C36.5939 9.36504 36.665 9.72242 36.665 10.0833C36.665 10.4442 36.5939 10.8016 36.4557 11.1351C36.3176 11.4685 36.1152 11.7715 35.86 12.0267L25.8903 22L35.86 31.9733C36.3754 32.4887 36.665 33.1878 36.665 33.9167C36.665 34.6456 36.3754 35.3446 35.86 35.86C35.3446 36.3754 34.6456 36.665 33.9167 36.665C33.1878 36.665 32.4887 36.3754 31.9733 35.86L22 25.8903L12.0267 35.86C11.5113 36.3754 10.8122 36.665 10.0833 36.665C9.35444 36.665 8.6554 36.3754 8.13999 35.86C7.62459 35.3446 7.33504 34.6456 7.33504 33.9167C7.33504 33.1878 7.62459 32.4887 8.13999 31.9733L18.1097 22L8.13999 12.0267C7.88456 11.7716 7.68192 11.4687 7.54366 11.1352C7.40539 10.8018 7.33423 10.4443 7.33423 10.0833C7.33423 9.72235 7.40539 9.3649 7.54366 9.03145C7.68192 8.69799 7.88456 8.39507 8.13999 8.13999Z"
        fill="#4DA9C2" />
</svg>