<svg width="54" height="54" viewBox="0 0 54 54" fill="none" xmlns="http://www.w3.org/2000/svg">
    <circle cx="27.3945" cy="27" r="26.5" fill="#00C100" />
    <path
        d="M41.791 25.3045C41.7298 26.9236 41.1605 28.6131 40.1352 30.1832C37.8305 33.7183 34.626 36.2342 31.0695 38.3736C29.8513 39.1081 28.5903 39.7631 27.314 40.3936C26.9865 40.5558 26.6621 40.6232 26.3529 40.3844C26.0652 40.1641 26.0163 39.8611 26.0622 39.506C26.1693 38.698 26.2519 37.8869 26.3376 37.0758C26.3927 36.5402 26.0989 36.2127 25.5082 36.1423C22.7842 35.8118 20.253 34.9487 18.0126 33.3449C15.7048 31.6921 14.0276 29.568 13.4583 26.7307C12.8278 23.5844 13.7399 20.8267 15.8242 18.4516C18.0095 15.9571 20.8376 14.5553 24.0513 13.934C28.2628 13.1199 32.2937 13.6555 36.0308 15.8378C38.5559 17.313 40.4474 19.3576 41.3595 22.2009C41.6564 23.1283 41.7757 24.0802 41.7941 25.2983L41.791 25.3045Z"
        fill="#FEFEFE" />
    <path
        d="M31.2776 25.7973C31.2776 24.6771 31.2776 23.6824 31.2776 22.6907C31.2776 22.5438 31.2776 22.3908 31.3204 22.2531C31.4306 21.9011 31.6847 21.7052 32.0519 21.7297C32.4162 21.7542 32.6702 21.9654 32.71 22.3357C32.7467 22.6877 32.7375 23.0458 32.7375 23.4008C32.7375 24.7812 32.7375 26.1616 32.7375 27.5389C32.7375 27.6858 32.7375 27.8357 32.7222 27.9827C32.6886 28.3101 32.5049 28.5336 32.1958 28.6315C31.8714 28.7356 31.6173 28.607 31.4184 28.3499C30.6195 27.3185 29.8207 26.287 29.0219 25.2556C28.878 25.0689 28.7311 24.8852 28.5781 24.6955C28.4465 24.8148 28.5107 24.9556 28.5077 25.075C28.5015 26.0085 28.5077 26.9451 28.5015 27.8786C28.4985 28.3561 28.2016 28.6652 27.7792 28.6652C27.3568 28.6652 27.06 28.3591 27.0569 27.8786C27.0508 26.0973 27.0569 24.319 27.0508 22.5377C27.0508 22.1521 27.1946 21.8644 27.565 21.745C27.92 21.6287 28.1924 21.7909 28.4097 22.0786C29.2453 23.1743 30.087 24.267 30.9256 25.3597C31.0113 25.4729 31.1031 25.5831 31.2684 25.7943L31.2776 25.7973Z"
        fill="#00C100" />
    <path
        d="M33.8426 25.1764C33.8426 24.3011 33.8364 23.4257 33.8426 22.5504C33.8456 21.9688 34.1058 21.7179 34.6904 21.7148C35.5963 21.7087 36.5023 21.7087 37.4083 21.7148C37.9347 21.7148 38.2377 21.9841 38.2408 22.431C38.2438 22.8809 37.9469 23.1533 37.4236 23.1594C36.8145 23.1686 36.2054 23.1686 35.5963 23.1594C35.3668 23.1533 35.2964 23.2268 35.2872 23.4624C35.2505 24.4755 35.2413 24.4725 36.2636 24.4725C36.6645 24.4725 37.0655 24.4633 37.4664 24.4755C37.9102 24.4878 38.2132 24.7877 38.2163 25.1917C38.2163 25.5957 37.9163 25.9018 37.4725 25.911C36.8482 25.9232 36.2268 25.9232 35.6025 25.911C35.379 25.9079 35.2995 25.963 35.2903 26.2048C35.2535 27.221 35.2444 27.221 36.2636 27.221C36.6798 27.221 37.0961 27.2118 37.5093 27.224C37.9622 27.2393 38.2499 27.524 38.253 27.9372C38.253 28.3504 37.9653 28.6564 37.5184 28.6625C36.539 28.6748 35.5596 28.6778 34.5802 28.6625C34.115 28.6564 33.8517 28.3687 33.8487 27.8913C33.8395 26.9853 33.8487 26.0793 33.8487 25.1734L33.8426 25.1764Z"
        fill="#00C100" />
    <path
        d="M19.4268 25.1303C19.4268 24.3161 19.4268 23.4989 19.4268 22.6848C19.4268 22.0512 19.6747 21.7207 20.1491 21.7145C20.645 21.7054 20.8959 22.0359 20.899 22.7031C20.899 24.0682 20.9143 25.4302 20.8898 26.7953C20.8837 27.1564 20.9969 27.2483 21.3397 27.233C21.9029 27.2054 22.4661 27.2176 23.0292 27.2299C23.5189 27.2391 23.8036 27.5207 23.7975 27.9583C23.7913 28.393 23.5006 28.6715 23.0109 28.6745C22.0927 28.6837 21.1714 28.6837 20.2532 28.6745C19.7145 28.6715 19.436 28.393 19.4299 27.8482C19.4207 26.9453 19.4299 26.0393 19.4299 25.1364L19.4268 25.1303Z"
        fill="#00C100" />
    <path
        d="M25.9732 25.1942C25.9732 26.1002 25.9793 27.0062 25.9732 27.9121C25.9701 28.4814 25.7742 28.6712 25.2294 28.6712C24.6938 28.6712 24.501 28.4722 24.501 27.8999C24.501 26.088 24.501 24.276 24.501 22.4641C24.501 21.9009 24.6938 21.7112 25.2417 21.7112C25.7834 21.7112 25.9701 21.8979 25.9732 22.4764C25.9793 23.3823 25.9732 24.2883 25.9732 25.1942Z"
        fill="#01C101" />
</svg>