<svg width="60" height="59" viewBox="0 0 60 59" fill="none" xmlns="http://www.w3.org/2000/svg">
    <path
        d="M30.0192 3.78079C24.6707 3.78686 19.5429 5.91425 15.7609 9.69625C11.9789 13.4782 9.85153 18.606 9.84546 23.9545C9.84546 41.2168 28.1852 54.2541 28.967 54.7997C29.2753 55.0158 29.6427 55.1316 30.0192 55.1316C30.3957 55.1316 30.7631 55.0158 31.0714 54.7997C31.8532 54.2541 50.193 41.2168 50.193 23.9545C50.1869 18.606 48.0595 13.4782 44.2775 9.69625C40.4955 5.91425 35.3678 3.78686 30.0192 3.78079ZM30.0192 16.6186C31.4701 16.6186 32.8884 17.0489 34.0948 17.855C35.3012 18.661 36.2415 19.8067 36.7967 21.1472C37.3519 22.4877 37.4972 23.9627 37.2142 25.3857C36.9311 26.8087 36.2324 28.1159 35.2065 29.1418C34.1805 30.1678 32.8734 30.8664 31.4504 31.1495C30.0273 31.4325 28.5523 31.2873 27.2119 30.732C25.8714 30.1768 24.7257 29.2365 23.9196 28.0301C23.1135 26.8238 22.6833 25.4054 22.6833 23.9545C22.6833 22.0089 23.4562 20.143 24.8319 18.7673C26.2077 17.3915 28.0736 16.6186 30.0192 16.6186Z"
        fill="#2B5693" />
</svg>