<svg width="60" height="59" viewBox="0 0 60 59" fill="none" xmlns="http://www.w3.org/2000/svg">
    <path
        d="M10.457 49.0577C9.1121 49.0577 7.96036 48.5785 7.0018 47.6199C6.04324 46.6613 5.56478 45.5104 5.56641 44.1671V14.8235C5.56641 13.4786 6.04569 12.3268 7.00425 11.3683C7.96281 10.4097 9.11373 9.93127 10.457 9.9329H49.5819C50.9268 9.9329 52.0785 10.4122 53.0371 11.3707C53.9956 12.3293 54.4741 13.4802 54.4725 14.8235V44.1671C54.4725 45.5121 53.9932 46.6638 53.0346 47.6223C52.0761 48.5809 50.9251 49.0594 49.5819 49.0577H10.457ZM30.0194 31.5127C30.2232 31.5127 30.4376 31.4817 30.6625 31.4198C30.8875 31.3578 31.1011 31.2665 31.3032 31.1459L48.6037 20.3254C48.9298 20.1217 49.1743 19.8665 49.3373 19.5601C49.5003 19.2536 49.5819 18.9178 49.5819 18.5526C49.5819 17.7375 49.2354 17.1262 48.5426 16.7186C47.8498 16.3111 47.1366 16.3314 46.403 16.7797L30.0194 27.05L13.6359 16.7797C12.9023 16.3314 12.1891 16.3217 11.4963 16.7504C10.8034 17.1791 10.457 17.7799 10.457 18.5526C10.457 18.9601 10.5385 19.3172 10.7015 19.6236C10.8646 19.9301 11.1091 20.164 11.4351 20.3254L28.7357 31.1459C28.9394 31.2682 29.1538 31.3603 29.3788 31.4222C29.6037 31.4842 29.8173 31.5143 30.0194 31.5127Z"
        fill="#2B5693" />
</svg>
    