<svg width="24" height="24" viewBox="0 0 24 24" fill="none" xmlns="http://www.w3.org/2000/svg">
<path d="M14.35 20.7734L9 18.8984L4.35 20.6984C4.01667 20.8318 3.70833 20.7941 3.425 20.5854C3.14167 20.3774 3 20.0984 3 19.7484V5.74843C3 5.53176 3.06267 5.34009 3.188 5.17343C3.31267 5.00676 3.48333 4.88176 3.7 4.79843L8.35 3.22343C8.56667 3.15676 8.78333 3.11909 9 3.11043C9.21667 3.10243 9.43333 3.14009 9.65 3.22343L15 5.09843L19.65 3.29843C19.9833 3.16509 20.2917 3.20243 20.575 3.41043C20.8583 3.61909 21 3.89843 21 4.24843V18.2484C21 18.4651 20.9373 18.6568 20.812 18.8234C20.6873 18.9901 20.5167 19.1151 20.3 19.1984L15.65 20.7734C15.4333 20.8401 15.2167 20.8774 15 20.8854C14.7833 20.8941 14.5667 20.8568 14.35 20.7734ZM14 18.5484V6.84843L10 5.44843V17.1484L14 18.5484Z" fill="white"/>
</svg>
