<svg width="24" height="24" viewBox="0 0 24 24" fill="none" xmlns="http://www.w3.org/2000/svg">
    <path
        d="M19.23 15.2617L16.69 14.9717C16.3914 14.9366 16.0886 14.9697 15.8046 15.0684C15.5206 15.1672 15.2626 15.329 15.05 15.5417L13.21 17.3817C10.3712 15.9379 8.06382 13.6305 6.62004 10.7917L8.47004 8.94172C8.90004 8.51172 9.11004 7.91172 9.04004 7.30172L8.75004 4.78172C8.69335 4.2939 8.45923 3.84396 8.09228 3.51757C7.72532 3.19118 7.25115 3.01114 6.76004 3.01172H5.03004C3.90004 3.01172 2.96004 3.95172 3.03004 5.08172C3.56004 13.6217 10.39 20.4417 18.92 20.9717C20.05 21.0417 20.99 20.1017 20.99 18.9717V17.2417C21 16.2317 20.24 15.3817 19.23 15.2617V15.2617Z"
        fill="white" />
</svg>