<svg xmlns="http://www.w3.org/2000/svg" width="60" height="59" viewBox="0 0 60 59" fill="none">
    <path
        d="M16.8637 26.5751C20.3849 33.4953 26.0581 39.1439 32.9783 42.6896L38.3579 37.31C39.0182 36.6497 39.9963 36.4297 40.8521 36.7231C43.5909 37.6279 46.5497 38.1169 49.5819 38.1169C50.9268 38.1169 52.0272 39.2173 52.0272 40.5622V49.0963C52.0272 50.4412 50.9268 51.5416 49.5819 51.5416C26.6205 51.5416 8.01172 32.9329 8.01172 9.97149C8.01172 8.62657 9.1121 7.52618 10.457 7.52618H19.0156C20.3605 7.52618 21.4609 8.62657 21.4609 9.97149C21.4609 13.0281 21.9499 15.9625 22.8547 18.7012C23.1237 19.5571 22.9281 20.5107 22.2434 21.1954L16.8637 26.5751Z"
        fill="#2B5693" />
</svg>