<svg width="54" height="54" viewBox="0 0 54 54" fill="none" xmlns="http://www.w3.org/2000/svg">
    <circle cx="27.3945" cy="27" r="26.5" fill="#2196F3" />
    <path
        d="M39.1196 19.4045C39.7235 19.2924 40.2125 19.0968 40.7043 18.9013C40.8883 18.8294 41.0781 18.7316 41.2421 18.9185C41.4204 19.1198 41.2564 19.2838 41.1472 19.4391C40.5863 20.2472 39.945 20.9863 39.1771 21.6075C38.7889 21.921 38.599 22.2834 38.5875 22.7896C38.5156 26.4133 37.3825 29.6833 35.1766 32.5564C32.6055 35.9069 29.1946 37.8309 25.0216 38.409C21.4697 38.9008 18.1163 38.2968 14.97 36.5713C14.9096 36.5367 14.8463 36.5051 14.786 36.4706C14.5731 36.3527 14.4207 36.1887 14.4811 35.9328C14.5444 35.6567 14.7629 35.5704 15.0247 35.5733C15.8932 35.5733 16.756 35.5532 17.613 35.3835C18.9159 35.1246 20.1324 34.6472 21.2569 33.9426C21.323 33.9023 21.3806 33.8448 21.4899 33.7528C20.4545 33.5227 19.5572 33.1345 18.7836 32.4874C17.9927 31.8259 17.4117 31.0177 17.0522 30.0543C16.8595 29.5366 17.0005 29.3612 17.5325 29.4532C17.754 29.4906 17.9725 29.5136 18.2918 29.4705C17.7051 29.1426 17.2104 28.8205 16.7876 28.3977C15.666 27.279 15.0649 25.9359 15.0333 24.3484C15.0247 23.8767 15.203 23.7732 15.6286 23.9831C15.9536 24.1413 16.2843 24.2851 16.7157 24.3829C16.523 24.1384 16.3649 23.9572 16.2297 23.7617C14.8607 21.7974 14.6939 19.7353 15.7494 17.5841C15.9709 17.1325 16.152 17.121 16.4857 17.5122C19.0108 20.483 22.206 22.2431 26.0569 22.8356C26.9945 22.9794 26.9715 22.9851 26.9887 22.0504C27.0319 19.7123 28.027 17.8947 30.1408 16.8564C32.3093 15.7923 34.4346 16.0138 36.373 17.4863C36.8044 17.8141 37.1869 17.8975 37.6845 17.7336C38.4725 17.4748 39.2318 17.167 39.9536 16.7586C40.1147 16.6666 40.2844 16.566 40.4569 16.7126C40.6295 16.8593 40.5547 17.0405 40.4914 17.2159C40.2585 17.8688 39.9162 18.4584 39.4705 18.9875C39.3669 19.1112 39.2605 19.2349 39.111 19.4103L39.1196 19.4045Z"
        fill="#FEFEFE" />
</svg>